SRRun01_grf
version=1
nRows=27
nColumns=19
inDegrees=no
endheader
time	ground_force_r_vx	ground_force_r_vy	ground_force_r_vz	ground_force_r_px	ground_force_r_py	ground_force_r_pz	ground_force_r_mx	ground_force_r_my	ground_force_r_mz	ground_force_l_vx	ground_force_l_vy	ground_force_l_vz	ground_force_l_px	ground_force_l_py	ground_force_l_pz	ground_force_l_mx	ground_force_l_my	ground_force_l_mz
    142.49700000	    178.80515001	    634.28549661	      5.88433672	      0.60845111	      0.00000000	     -0.31140292	      0.00001166	    -14.93708122	      0.00001874	      0.00000000	      0.00000000	      0.00000000	      0.00000000	      0.00000000	      0.00000000	      0.00000000	      0.00000000	      0.00000000
    142.49800000	    175.94195640	    617.47461786	      2.95705342	      0.60693350	      0.00000000	     -0.31152511	      0.00001159	    -14.19384981	      0.00001806	      0.00000000	      0.00000000	      0.00000000	      0.00000000	      0.00000000	      0.00000000	      0.00000000	      0.00000000	      0.00000000
    142.49900000	    172.93665453	    600.59896096	     -0.12801243	      0.60522081	      0.00000000	     -0.31165269	      0.00001138	    -12.43401814	      0.00001725	      0.00000000	      0.00000000	      0.00000000	      0.00000000	      0.00000000	      0.00000000	      0.00000000	      0.00000000	      0.00000000
    142.50000000	    169.86992816	    583.66288353	     -3.19417585	      0.60325560	      0.00000000	     -0.31177505	      0.00001104	     -9.86165006	      0.00001633	      0.00000000	      0.00000000	      0.00000000	      0.00000000	      0.00000000	      0.00000000	      0.00000000	      0.00000000	      0.00000000
    142.50100000	    166.80241966	    566.67855632	     -6.05045480	      0.60099567	      0.00000000	     -0.31187996	      0.00001059	     -6.73817043	      0.00001529	      0.00000000	      0.00000000	      0.00000000	      0.00000000	      0.00000000	      0.00000000	      0.00000000	      0.00000000	      0.00000000
    142.50200000	    163.77142254	    549.66699877	     -8.50602497	      0.59841854	      0.00000000	     -0.31195503	      0.00001003	     -3.35789603	      0.00001417	      0.00000000	      0.00000000	      0.00000000	      0.00000000	      0.00000000	      0.00000000	      0.00000000	      0.00000000	      0.00000000
    142.50300000	    160.79141532	    532.65907809	    -10.38520706	      0.59552509	      0.00000000	     -0.31198905	      0.00000940	     -0.02143630	      0.00001300	      0.00000000	      0.00000000	      0.00000000	      0.00000000	      0.00000000	      0.00000000	      0.00000000	      0.00000000	      0.00000000
    142.50400000	    157.85789427	    515.69556994	    -11.54183497	      0.59234149	      0.00000000	     -0.31197287	      0.00000873	      2.99049246	      0.00001183	      0.00000000	      0.00000000	      0.00000000	      0.00000000	      0.00000000	      0.00000000	      0.00000000	      0.00000000	      0.00000000
    142.50500000	    154.95348033	    498.82571087	    -11.87185950	      0.58891841	      0.00000000	     -0.31189962	      0.00000805	      5.44045389	      0.00001074	      0.00000000	      0.00000000	      0.00000000	      0.00000000	      0.00000000	      0.00000000	      0.00000000	      0.00000000	      0.00000000
    142.50600000	    152.05500841	    482.10421927	    -11.32305916	      0.58532709	      0.00000000	     -0.31176432	      0.00000739	      7.15295782	      0.00000978	      0.00000000	      0.00000000	      0.00000000	      0.00000000	      0.00000000	      0.00000000	      0.00000000	      0.00000000	      0.00000000
    142.50700000	    149.14027654	    465.58721403	     -9.90084453	      0.58165265	      0.00000000	     -0.31156311	      0.00000679	      8.02702734	      0.00000901	      0.00000000	      0.00000000	      0.00000000	      0.00000000	      0.00000000	      0.00000000	      0.00000000	      0.00000000	      0.00000000
    142.50800000	    146.19332517	    449.32771856	     -7.66944798	      0.57798575	      0.00000000	     -0.31129269	      0.00000625	      8.04178567	      0.00000848	      0.00000000	      0.00000000	      0.00000000	      0.00000000	      0.00000000	      0.00000000	      0.00000000	      0.00000000	      0.00000000
    142.50900000	    143.20747487	    433.37149345	     -4.74830825	      0.57441402	      0.00000000	     -0.31095030	      0.00000579	      7.25471244	      0.00000822	      0.00000000	      0.00000000	      0.00000000	      0.00000000	      0.00000000	      0.00000000	      0.00000000	      0.00000000	      0.00000000
    142.51000000	    140.18577882	    417.75380560	     -1.30400828	      0.57101396	      0.00000000	     -0.31053456	      0.00000542	      5.79289214	      0.00000822	      0.00000000	      0.00000000	      0.00000000	      0.00000000	      0.00000000	      0.00000000	      0.00000000	      0.00000000	      0.00000000
    142.51100000	    137.13898119	    402.49745994	      2.46151595	      0.56784326	      0.00000000	     -0.31004706	      0.00000513	      3.83833509	      0.00000847	      0.00000000	      0.00000000	      0.00000000	      0.00000000	      0.00000000	      0.00000000	      0.00000000	      0.00000000	      0.00000000
    142.51200000	    134.08148524	    387.61206868	      6.32559887	      0.56493299	      0.00000000	     -0.30949407	      0.00000490	      1.60909121	      0.00000890	      0.00000000	      0.00000000	      0.00000000	      0.00000000	      0.00000000	      0.00000000	      0.00000000	      0.00000000	      0.00000000
    142.51300000	    131.02618399	    373.09418688	     10.06122498	      0.56227942	      0.00000000	     -0.30888785	      0.00000472	     -0.66180400	      0.00000945	      0.00000000	      0.00000000	      0.00000000	      0.00000000	      0.00000000	      0.00000000	      0.00000000	      0.00000000	      0.00000000
    142.51400000	    127.97923937	    358.92782231	     13.45383342	      0.55983695	      0.00000000	     -0.30824706	      0.00000457	     -2.74756548	      0.00001003	      0.00000000	      0.00000000	      0.00000000	      0.00000000	      0.00000000	      0.00000000	      0.00000000	      0.00000000	      0.00000000
    142.51500000	    124.93593749	    345.08518953	     16.31700901	      0.55751479	      0.00000000	     -0.30759619	      0.00000442	     -4.44737230	      0.00001058	      0.00000000	      0.00000000	      0.00000000	      0.00000000	      0.00000000	      0.00000000	      0.00000000	      0.00000000	      0.00000000
    142.51600000	    121.87852932	    331.52822397	     18.50554217	      0.55518027	      0.00000000	     -0.30696415	      0.00000426	     -5.60316303	      0.00001100	      0.00000000	      0.00000000	      0.00000000	      0.00000000	      0.00000000	      0.00000000	      0.00000000	      0.00000000	      0.00000000
    142.51700000	    118.77655349	    318.21174624	     19.92467742	      0.55267065	      0.00000000	     -0.30638248	      0.00000409	     -6.11237316	      0.00001126	      0.00000000	      0.00000000	      0.00000000	      0.00000000	      0.00000000	      0.00000000	      0.00000000	      0.00000000	      0.00000000
    142.51800000	    115.58965851	    305.08883447	     20.53494307	      0.54981362	      0.00000000	     -0.30588327	      0.00000389	     -5.93570848	      0.00001130	      0.00000000	      0.00000000	      0.00000000	      0.00000000	      0.00000000	      0.00000000	      0.00000000	      0.00000000	      0.00000000
    142.51900000	    112.27248664	    292.11797382	     20.35255730	      0.54645435	      0.00000000	     -0.30549699	      0.00000368	     -5.09933266	      0.00001112	      0.00000000	      0.00000000	      0.00000000	      0.00000000	      0.00000000	      0.00000000	      0.00000000	      0.00000000	      0.00000000
    142.52000000	    108.78086486	    279.27050446	     19.44583608	      0.54248461	      0.00000000	     -0.30525007	      0.00000345	     -3.69125791	      0.00001074	      0.00000000	      0.00000000	      0.00000000	      0.00000000	      0.00000000	      0.00000000	      0.00000000	      0.00000000	      0.00000000
    142.52100000	    105.07842148	    266.53645452	     17.92818402	      0.53786782	      0.00000000	     -0.30516195	      0.00000322	     -1.85226155	      0.00001017	      0.00000000	      0.00000000	      0.00000000	      0.00000000	      0.00000000	      0.00000000	      0.00000000	      0.00000000	      0.00000000
    142.52200000	    101.14275088	    253.92731262	     15.94821922	      0.53265424	      0.00000000	     -0.30524202	      0.00000301	      0.23779525	      0.00000947	      0.00000000	      0.00000000	      0.00000000	      0.00000000	      0.00000000	      0.00000000	      0.00000000	      0.00000000	      0.00000000
    142.52300000	     96.97036426	    241.47535646	     13.67759807	      0.52698399	      0.00000000	     -0.30548704	      0.00000282	      2.37688543	      0.00000868	      0.00000000	      0.00000000	      0.00000000	      0.00000000	      0.00000000	      0.00000000	      0.00000000	      0.00000000	      0.00000000
